<svg width="130" height="108" viewBox="0 0 130 108" fill="none" xmlns="http://www.w3.org/2000/svg">
<mask id="path-1-inside-1" fill="white">
<path fill-rule="evenodd" clip-rule="evenodd" d="M30.7143 74.2837C13.7186 74.0923 0 60.2554 0 43.2143C0 26.054 13.9112 12.1429 31.0714 12.1429C33.6696 12.1429 36.1932 12.4617 38.6054 13.0625C44.2382 5.15615 53.4812 0 63.9286 0C74.5963 0 84.0084 5.37597 89.6034 13.5665C92.5471 12.6415 95.6796 12.1429 98.9286 12.1429C116.089 12.1429 130 26.054 130 43.2143C130 60.2554 116.281 74.0923 99.2857 74.2837V84.2857C99.2857 89.8086 94.8086 94.2857 89.2857 94.2857H40.7143C35.1914 94.2857 30.7143 89.8086 30.7143 84.2857V74.2837Z"/>
</mask>
<path d="M30.7143 74.2837H35.7143V69.3397L30.7706 69.284L30.7143 74.2837ZM38.6054 13.0625L37.397 17.9143L40.7015 18.7373L42.6776 15.9637L38.6054 13.0625ZM89.6034 13.5665L85.4748 16.3868L87.5657 19.4478L91.1023 18.3365L89.6034 13.5665ZM99.2857 74.2837L99.2294 69.284L94.2857 69.3397V74.2837H99.2857ZM30.7706 69.284C16.511 69.1234 5 57.5128 5 43.2143H-5C-5 62.9979 10.9261 79.0612 30.658 79.2834L30.7706 69.284ZM5 43.2143C5 28.8154 16.6726 17.1429 31.0714 17.1429V7.14286C11.1497 7.14286 -5 23.2926 -5 43.2143H5ZM31.0714 17.1429C33.259 17.1429 35.3769 17.4112 37.397 17.9143L39.8137 8.21072C37.0095 7.5123 34.0801 7.14286 31.0714 7.14286V17.1429ZM42.6776 15.9637C47.4125 9.31767 55.1664 5 63.9286 5V-5C51.7961 -5 41.0639 0.99462 34.5331 10.1613L42.6776 15.9637ZM63.9286 5C72.8751 5 80.7716 9.50189 85.4748 16.3868L93.732 10.7462C87.2451 1.25005 76.3174 -5 63.9286 -5V5ZM91.1023 18.3365C93.5665 17.5622 96.1939 17.1429 98.9286 17.1429V7.14286C95.1653 7.14286 91.5276 7.72083 88.1045 8.79644L91.1023 18.3365ZM98.9286 17.1429C113.327 17.1429 125 28.8154 125 43.2143H135C135 23.2926 118.85 7.14286 98.9286 7.14286V17.1429ZM125 43.2143C125 57.5128 113.489 69.1234 99.2294 69.284L99.342 79.2834C119.074 79.0611 135 62.9979 135 43.2143H125ZM94.2857 74.2837V84.2857H104.286V74.2837H94.2857ZM94.2857 84.2857C94.2857 87.0471 92.0471 89.2857 89.2857 89.2857V99.2857C97.57 99.2857 104.286 92.57 104.286 84.2857H94.2857ZM89.2857 89.2857H40.7143V99.2857H89.2857V89.2857ZM40.7143 89.2857C37.9529 89.2857 35.7143 87.0471 35.7143 84.2857H25.7143C25.7143 92.57 32.43 99.2857 40.7143 99.2857V89.2857ZM35.7143 84.2857V74.2837H25.7143V84.2857H35.7143Z" fill="#E5E6F0" mask="url(#path-1-inside-1)"/>
<line x1="36.5" y1="99.9286" x2="93.5" y2="99.9286" stroke="#E5E6F0" stroke-width="3" stroke-linecap="round" stroke-linejoin="round"/>
<line x1="36.5" y1="106.357" x2="93.5" y2="106.357" stroke="#E5E6F0" stroke-width="3" stroke-linecap="round" stroke-linejoin="round"/>
</svg>
