<svg width="22" height="22" viewBox="0 0 22 22" fill="none" xmlns="http://www.w3.org/2000/svg">
<path d="M16.0993 0.920853L13.5535 0.916656C10.6934 0.916656 8.84502 2.86466 8.84502 5.8797V8.168H6.28531C6.06412 8.168 5.885 8.3522 5.885 8.57941V11.8949C5.885 12.1221 6.06432 12.3061 6.28531 12.3061H8.84502V20.6721C8.84502 20.8993 9.02414 21.0833 9.24533 21.0833H12.585C12.8062 21.0833 12.9853 20.8991 12.9853 20.6721V12.3061H15.9782C16.1994 12.3061 16.3785 12.1221 16.3785 11.8949L16.3798 8.57941C16.3798 8.47032 16.3375 8.36584 16.2625 8.28863C16.1876 8.21142 16.0855 8.168 15.9793 8.168H12.9853V6.22818C12.9853 5.29583 13.2016 4.82252 14.384 4.82252L16.0989 4.82189C16.3199 4.82189 16.499 4.63768 16.499 4.41068V1.33206C16.499 1.10527 16.3201 0.921272 16.0993 0.920853Z" fill="black"/>
</svg>
