<svg width="45" height="40" viewBox="0 0 45 40" fill="none" xmlns="http://www.w3.org/2000/svg">
<mask id="path-1-inside-1" fill="white">
<path fill-rule="evenodd" clip-rule="evenodd" d="M10.6319 25.7136C4.74875 25.6474 0 20.8577 0 14.9588C0 9.01873 4.8154 4.20333 10.7555 4.20333C11.6548 4.20333 12.5284 4.31371 13.3634 4.52166C15.3132 1.78483 18.5127 0 22.1291 0C25.8218 0 29.0798 1.86093 31.0166 4.69613C32.0355 4.37595 33.1199 4.20333 34.2445 4.20333C40.1846 4.20333 45 9.01873 45 14.9588C45 20.8576 40.2513 25.6473 34.3682 25.7136V28.6374C34.3682 30.8465 32.5773 32.6374 30.3682 32.6374H14.6319C12.4228 32.6374 10.6319 30.8465 10.6319 28.6374V25.7136Z"/>
</mask>
<path d="M10.6319 25.7136H12.6319V23.736L10.6544 23.7138L10.6319 25.7136ZM13.3634 4.52166L12.88 6.46238L14.2018 6.79158L14.9922 5.68215L13.3634 4.52166ZM31.0166 4.69613L29.3651 5.82425L30.2015 7.04865L31.6161 6.60415L31.0166 4.69613ZM34.3682 25.7136L34.3457 23.7138L32.3682 23.736V25.7136H34.3682ZM10.6544 23.7138C5.86575 23.6598 2 19.7607 2 14.9588H-2C-2 21.9547 3.63176 27.6349 10.6094 27.7135L10.6544 23.7138ZM2 14.9588C2 10.1233 5.91997 6.20333 10.7555 6.20333V2.20333C3.71083 2.20333 -2 7.91416 -2 14.9588H2ZM10.7555 6.20333C11.4906 6.20333 12.2019 6.29349 12.88 6.46238L13.8467 2.58095C12.8549 2.33393 11.8191 2.20333 10.7555 2.20333V6.20333ZM14.9922 5.68215C16.5829 3.44944 19.1868 2 22.1291 2V-2C17.8386 -2 14.0434 0.120221 11.7345 3.36118L14.9922 5.68215ZM22.1291 2C25.1333 2 27.7851 3.51129 29.3651 5.82425L32.668 3.568C30.3745 0.210561 26.5102 -2 22.1291 -2V2ZM31.6161 6.60415C32.4433 6.34422 33.3256 6.20333 34.2445 6.20333V2.20333C32.9141 2.20333 31.6277 2.40767 30.417 2.7881L31.6161 6.60415ZM34.2445 6.20333C39.08 6.20333 43 10.1233 43 14.9588H47C47 7.91416 41.2892 2.20333 34.2445 2.20333V6.20333ZM43 14.9588C43 19.7606 39.1343 23.6598 34.3457 23.7138L34.3907 27.7135C41.3683 27.6349 47 21.9547 47 14.9588H43ZM32.3682 25.7136V28.6374H36.3682V25.7136H32.3682ZM32.3682 28.6374C32.3682 29.7419 31.4728 30.6374 30.3682 30.6374V34.6374C33.6819 34.6374 36.3682 31.9511 36.3682 28.6374H32.3682ZM30.3682 30.6374H14.6319V34.6374H30.3682V30.6374ZM14.6319 30.6374C13.5273 30.6374 12.6319 29.7419 12.6319 28.6374H8.63191C8.63191 31.9511 11.3182 34.6374 14.6319 34.6374V30.6374ZM12.6319 28.6374V25.7136H8.63191V28.6374H12.6319Z" fill="#842B2B" mask="url(#path-1-inside-1)"/>
<line x1="13.1154" y1="35.3956" x2="31.8846" y2="35.3956" stroke="#842B2B" stroke-width="2" stroke-linecap="round" stroke-linejoin="round"/>
<line x1="13.1154" y1="38.9066" x2="31.8846" y2="38.9066" stroke="#842B2B" stroke-width="2" stroke-linecap="round" stroke-linejoin="round"/>
</svg>
