<svg width="22" height="22" viewBox="0 0 22 22" fill="none" xmlns="http://www.w3.org/2000/svg">
<path fill-rule="evenodd" clip-rule="evenodd" d="M1.83333 11C1.83333 7.57309 1.83333 5.85962 2.57019 4.58334C3.05292 3.74724 3.74723 3.05293 4.58333 2.5702C5.85961 1.83334 7.57307 1.83334 11 1.83334C14.4269 1.83334 16.1404 1.83334 17.4167 2.5702C18.2528 3.05293 18.9471 3.74724 19.4298 4.58334C20.1667 5.85962 20.1667 7.57309 20.1667 11C20.1667 14.4269 20.1667 16.1404 19.4298 17.4167C18.9471 18.2528 18.2528 18.9471 17.4167 19.4298C16.1404 20.1667 14.4269 20.1667 11 20.1667C7.57307 20.1667 5.85961 20.1667 4.58333 19.4298C3.74723 18.9471 3.05292 18.2528 2.57019 17.4167C1.83333 16.1404 1.83333 14.4269 1.83333 11ZM11 6.14707C8.31996 6.14707 6.14706 8.31997 6.14706 11C6.14706 13.68 8.31996 15.853 11 15.853C13.68 15.853 15.8529 13.68 15.8529 11C15.8529 8.31997 13.68 6.14707 11 6.14707ZM11 14.0331C9.32816 14.0331 7.96691 12.6718 7.96691 11C7.96691 9.32696 9.32816 7.96692 11 7.96692C12.6718 7.96692 14.0331 9.32696 14.0331 11C14.0331 12.6718 12.6718 14.0331 11 14.0331ZM16.8636 5.78311C16.8636 6.14024 16.5741 6.42976 16.2169 6.42976C15.8598 6.42976 15.5703 6.14024 15.5703 5.78311C15.5703 5.42597 15.8598 5.13645 16.2169 5.13645C16.5741 5.13645 16.8636 5.42597 16.8636 5.78311Z" fill="black"/>
</svg>
