<svg width="40" height="34" viewBox="0 0 40 34" fill="none" xmlns="http://www.w3.org/2000/svg">
<path fill-rule="evenodd" clip-rule="evenodd" d="M10.4506 21.8677V22.8565V25.011C10.4506 26.6678 11.7937 28.011 13.4506 28.011H26.5494C28.2063 28.011 29.5494 26.6678 29.5494 25.011V22.8565V21.8677L30.5382 21.8566C35.2204 21.8039 39 17.9916 39 13.2967C39 8.56891 35.1674 4.73627 30.4396 4.73627C29.5427 4.73627 28.6799 4.87385 27.8701 5.12832L27.1627 5.35057L26.7446 4.73838C25.2014 2.47933 22.6085 1 19.6703 1C16.7928 1 14.2466 2.41881 12.693 4.59948L12.2978 5.1542L11.6369 4.9896C10.9731 4.82428 10.2778 4.73627 9.56044 4.73627C4.83264 4.73627 1 8.56891 1 13.2967C1 17.9916 4.77959 21.8039 9.46181 21.8566L10.4506 21.8677ZM11.8786 4.01924C11.1364 3.83439 10.3599 3.73627 9.56044 3.73627C4.28035 3.73627 0 8.01663 0 13.2967C0 18.5401 4.22109 22.7976 9.45055 22.8565V25.011C9.45055 27.2201 11.2414 29.011 13.4506 29.011H26.5494C28.7586 29.011 30.5494 27.2201 30.5494 25.011V22.8565C35.7789 22.7976 40 18.5401 40 13.2967C40 8.01663 35.7196 3.73627 30.4396 3.73627C29.4399 3.73627 28.476 3.88971 27.5703 4.17431C25.8487 1.65415 22.9527 0 19.6703 0C16.4558 0 13.6117 1.58651 11.8786 4.01924ZM10.7692 30.7088C10.7692 30.4327 10.9931 30.2088 11.2692 30.2088H28.7308C29.0069 30.2088 29.2308 30.4327 29.2308 30.7088C29.2308 30.9849 29.0069 31.2088 28.7308 31.2088H11.2692C10.9931 31.2088 10.7692 30.9849 10.7692 30.7088ZM11.2692 32.1868C10.9931 32.1868 10.7692 32.4107 10.7692 32.6868C10.7692 32.963 10.9931 33.1868 11.2692 33.1868H28.7308C29.0069 33.1868 29.2308 32.963 29.2308 32.6868C29.2308 32.4107 29.0069 32.1868 28.7308 32.1868H11.2692Z" fill="#842B2B"/>
</svg>
