<svg width="22" height="22" viewBox="0 0 22 22" fill="none" xmlns="http://www.w3.org/2000/svg">
<path d="M20.625 5.29144C19.9165 5.59205 19.1563 5.79591 18.3575 5.88693C19.1731 5.41929 19.7974 4.67754 20.0933 3.79641C19.3283 4.22948 18.4838 4.54394 17.584 4.71441C16.8635 3.97841 15.8386 3.51999 14.7019 3.51999C12.521 3.51999 10.7528 5.21313 10.7528 7.30019C10.7528 7.59619 10.7876 7.88529 10.855 8.16174C7.57351 8.00392 4.6637 6.49854 2.71621 4.21105C2.37578 4.76853 2.18212 5.41811 2.18212 6.11152C2.18212 7.42343 2.87981 8.58098 3.93837 9.25822C3.2912 9.2375 2.68252 9.06703 2.14966 8.78368V8.8309C2.14966 10.6623 3.51134 12.1907 5.31688 12.5385C4.98608 12.6238 4.63725 12.671 4.27638 12.671C4.02138 12.671 3.77477 12.6468 3.53298 12.6007C4.03578 14.1038 5.49372 15.1969 7.2211 15.2268C5.87023 16.2404 4.16691 16.8428 2.31687 16.8428C1.99811 16.8428 1.68413 16.8244 1.375 16.791C3.12282 17.8656 5.19783 18.4922 7.428 18.4922C14.6923 18.4922 18.6631 12.7309 18.6631 7.73443L18.6499 7.24492C19.4257 6.71505 20.0969 6.04933 20.625 5.29144Z" fill="black"/>
</svg>
