<svg width="22" height="22" viewBox="0 0 22 22" fill="none" xmlns="http://www.w3.org/2000/svg">
<path fill-rule="evenodd" clip-rule="evenodd" d="M19.6078 3.77113C20.5501 4.02491 21.2931 4.7678 21.5467 5.71025C22.018 7.43168 21.9999 11.0199 21.9999 11.0199C21.9999 11.0199 21.9999 14.5898 21.5469 16.3114C21.2931 17.2537 20.5502 17.9967 19.6078 18.2504C17.8862 18.7035 11 18.7035 11 18.7035C11 18.7035 4.1317 18.7035 2.39214 18.2324C1.44969 17.9786 0.706799 17.2356 0.453016 16.2933C0 14.5898 0 11.0018 0 11.0018C0 11.0018 0 7.43168 0.453016 5.71025C0.706632 4.76797 1.46781 4.00679 2.39197 3.75317C4.11357 3.29999 10.9998 3.29999 10.9998 3.29999C10.9998 3.29999 17.8862 3.29999 19.6078 3.77113ZM14.5336 11.0018L8.80722 14.3V7.7036L14.5336 11.0018Z" fill="black"/>
</svg>
